<?xml version="1.0" encoding="UTF-8"?>
<svg xmlns="http://www.w3.org/2000/svg" xmlns:xlink="http://www.w3.org/1999/xlink" version="1.1" viewBox="392 260.5 1 38" height="141px" width="619px">
<path d="M 319.109375 272.492188 C 320.132813 272.492188 321.128906 272.683594 322.074219 273.054688 L 322.074219 274.023438 C 321.144531 273.609375 320.132813 273.390625 319.109375 273.390625 C 315.101563 273.390625 311.84375 276.648438 311.84375 280.65625 C 311.84375 284.660156 315.101563 287.917969 319.109375 287.917969 C 320.132813 287.917969 321.144531 287.699219 322.074219 287.285156 L 322.074219 288.257813 C 321.128906 288.625 320.132813 288.820313 319.109375 288.820313 C 314.609375 288.820313 310.945313 285.15625 310.945313 280.65625 C 310.945313 276.15625 314.609375 272.492188 319.109375 272.492188 M 322.074219 280.65625 C 322.074219 282.289063 320.746094 283.621094 319.109375 283.621094 C 317.472656 283.621094 316.144531 282.289063 316.144531 280.65625 C 316.144531 279.019531 317.472656 277.691406 319.109375 277.691406 C 320.746094 277.691406 322.074219 279.019531 322.074219 280.65625 M 319.109375 276.855469 C 317.015625 276.855469 315.308594 278.5625 315.308594 280.65625 C 315.308594 282.75 317.015625 284.453125 319.109375 284.453125 C 320.308594 284.453125 321.378906 283.894531 322.074219 283.023438 L 322.074219 284.292969 C 321.238281 284.976563 320.195313 285.351563 319.109375 285.351563 C 316.519531 285.351563 314.414063 283.246094 314.414063 280.65625 C 314.414063 278.066406 316.519531 275.957031 319.109375 275.957031 C 320.195313 275.957031 321.210938 276.316406 322.054688 276.996094 C 322.058594 277 322.066406 277 322.074219 277.007813 L 322.074219 278.285156 C 321.378906 277.414063 320.308594 276.855469 319.109375 276.855469 M 322.074219 275.988281 C 321.191406 275.429688 320.160156 275.125 319.109375 275.125 C 316.058594 275.125 313.578125 277.605469 313.578125 280.65625 C 313.578125 283.707031 316.058594 286.1875 319.109375 286.1875 C 320.167969 286.1875 321.191406 285.882813 322.074219 285.320313 L 322.074219 286.359375 C 321.164063 286.832031 320.140625 287.085938 319.109375 287.085938 C 315.5625 287.085938 312.679688 284.199219 312.679688 280.65625 C 312.679688 277.109375 315.5625 274.226563 319.109375 274.226563 C 320.140625 274.226563 321.164063 274.476563 322.074219 274.949219 Z M 319.109375 289.652344 C 320.128906 289.652344 321.125 289.476563 322.074219 289.140625 L 322.074219 290.199219 C 322.074219 290.429688 322.261719 290.617188 322.492188 290.617188 C 322.722656 290.617188 322.910156 290.429688 322.910156 290.199219 L 322.910156 271.273438 C 322.910156 271.042969 322.722656 270.855469 322.492188 270.855469 C 322.261719 270.855469 322.074219 271.042969 322.074219 271.273438 L 322.074219 272.167969 C 321.125 271.835938 320.128906 271.660156 319.109375 271.660156 C 314.148438 271.660156 310.113281 275.695313 310.113281 280.65625 C 310.113281 285.617188 314.148438 289.652344 319.109375 289.652344 " style=" stroke:none;fill-rule:nonzero;fill:rgb(13.729858%,12.159729%,12.548828%);fill-opacity:1;"/>
<path style=" stroke:none;fill-rule:nonzero;fill:rgb(13.729858%,12.159729%,12.548828%);fill-opacity:1;" d="M 324.222656 290.617188 C 324.457031 290.617188 324.640625 290.429688 324.640625 290.199219 L 324.640625 271.273438 C 324.640625 271.042969 324.457031 270.855469 324.222656 270.855469 C 323.992188 270.855469 323.808594 271.042969 323.808594 271.273438 L 323.808594 290.199219 C 323.808594 290.429688 323.992188 290.617188 324.222656 290.617188 "/>
<path style=" stroke:none;fill-rule:nonzero;fill:rgb(13.729858%,12.159729%,12.548828%);fill-opacity:1;" d="M 325.957031 290.617188 C 326.1875 290.617188 326.375 290.429688 326.375 290.199219 L 326.375 271.273438 C 326.375 271.042969 326.1875 270.855469 325.957031 270.855469 C 325.726563 270.855469 325.539063 271.042969 325.539063 271.273438 L 325.539063 290.199219 C 325.539063 290.429688 325.726563 290.617188 325.957031 290.617188 "/>
<path style=" stroke:none;fill-rule:nonzero;fill:rgb(13.729858%,12.159729%,12.548828%);fill-opacity:1;" d="M 327.691406 290.617188 C 327.921875 290.617188 328.105469 290.429688 328.105469 290.199219 L 328.105469 271.273438 C 328.105469 271.042969 327.921875 270.855469 327.691406 270.855469 C 327.457031 270.855469 327.273438 271.042969 327.273438 271.273438 L 327.273438 290.199219 C 327.273438 290.429688 327.457031 290.617188 327.691406 290.617188 "/>
<path style=" stroke:none;fill-rule:nonzero;fill:rgb(13.729858%,12.159729%,12.548828%);fill-opacity:1;" d="M 331.589844 290.617188 C 331.824219 290.617188 332.007813 290.429688 332.007813 290.199219 L 332.007813 261.328125 C 332.007813 261.101563 331.824219 260.914063 331.589844 260.914063 C 331.359375 260.914063 331.175781 261.101563 331.175781 261.328125 L 331.175781 290.199219 C 331.175781 290.429688 331.359375 290.617188 331.589844 290.617188 "/>
<path style=" stroke:none;fill-rule:nonzero;fill:rgb(13.729858%,12.159729%,12.548828%);fill-opacity:1;" d="M 333.324219 290.617188 C 333.554688 290.617188 333.742188 290.429688 333.742188 290.199219 L 333.742188 261.328125 C 333.742188 261.101563 333.554688 260.914063 333.324219 260.914063 C 333.09375 260.914063 332.90625 261.101563 332.90625 261.328125 L 332.90625 290.199219 C 332.90625 290.429688 333.09375 290.617188 333.324219 290.617188 "/>
<path style=" stroke:none;fill-rule:nonzero;fill:rgb(13.729858%,12.159729%,12.548828%);fill-opacity:1;" d="M 335.058594 290.617188 C 335.289063 290.617188 335.472656 290.429688 335.472656 290.199219 L 335.472656 261.328125 C 335.472656 261.101563 335.289063 260.914063 335.058594 260.914063 C 334.824219 260.914063 334.640625 261.101563 334.640625 261.328125 L 334.640625 290.199219 C 334.640625 290.429688 334.824219 290.617188 335.058594 290.617188 "/>
<path style=" stroke:none;fill-rule:nonzero;fill:rgb(13.729858%,12.159729%,12.548828%);fill-opacity:1;" d="M 336.789063 290.617188 C 337.019531 290.617188 337.207031 290.429688 337.207031 290.199219 L 337.207031 261.328125 C 337.207031 261.101563 337.019531 260.914063 336.789063 260.914063 C 336.558594 260.914063 336.371094 261.101563 336.371094 261.328125 L 336.371094 290.199219 C 336.371094 290.429688 336.558594 290.617188 336.789063 290.617188 "/>
<path style=" stroke:none;fill-rule:nonzero;fill:rgb(13.729858%,12.159729%,12.548828%);fill-opacity:1;" d="M 339.476563 273.164063 L 350.296875 273.164063 C 350.527344 273.164063 350.714844 272.980469 350.714844 272.75 C 350.714844 272.519531 350.527344 272.332031 350.296875 272.332031 L 347.558594 272.332031 L 347.558594 261.328125 C 347.558594 261.101563 347.375 260.914063 347.140625 260.914063 C 346.910156 260.914063 346.726563 261.101563 346.726563 261.328125 L 346.726563 272.332031 L 345.828125 272.332031 L 345.828125 261.328125 C 345.828125 261.101563 345.640625 260.914063 345.410156 260.914063 C 345.179688 260.914063 344.992188 261.101563 344.992188 261.328125 L 344.992188 272.332031 L 344.09375 272.332031 L 344.09375 261.328125 C 344.09375 261.101563 343.90625 260.914063 343.675781 260.914063 C 343.445313 260.914063 343.257813 261.101563 343.257813 261.328125 L 343.257813 272.332031 L 342.359375 272.332031 L 342.359375 261.328125 C 342.359375 261.101563 342.175781 260.914063 341.945313 260.914063 C 341.714844 260.914063 341.527344 261.101563 341.527344 261.328125 L 341.527344 272.332031 L 339.476563 272.332031 C 339.246094 272.332031 339.058594 272.519531 339.058594 272.75 C 339.058594 272.980469 339.246094 273.164063 339.476563 273.164063 "/>
<path style=" stroke:none;fill-rule:nonzero;fill:rgb(13.729858%,12.159729%,12.548828%);fill-opacity:1;" d="M 339.476563 274.898438 L 350.296875 274.898438 C 350.527344 274.898438 350.714844 274.710938 350.714844 274.480469 C 350.714844 274.25 350.527344 274.066406 350.296875 274.066406 L 339.476563 274.066406 C 339.246094 274.066406 339.058594 274.25 339.058594 274.480469 C 339.058594 274.710938 339.246094 274.898438 339.476563 274.898438 "/>
<path style=" stroke:none;fill-rule:nonzero;fill:rgb(13.729858%,12.159729%,12.548828%);fill-opacity:1;" d="M 339.476563 276.632813 L 350.296875 276.632813 C 350.527344 276.632813 350.714844 276.445313 350.714844 276.214844 C 350.714844 275.984375 350.527344 275.796875 350.296875 275.796875 L 339.476563 275.796875 C 339.246094 275.796875 339.058594 275.984375 339.058594 276.214844 C 339.058594 276.445313 339.246094 276.632813 339.476563 276.632813 "/>
<path style=" stroke:none;fill-rule:nonzero;fill:rgb(13.729858%,12.159729%,12.548828%);fill-opacity:1;" d="M 339.476563 278.363281 L 341.527344 278.363281 L 341.527344 282.59375 C 341.527344 286.789063 344.9375 290.199219 349.132813 290.199219 L 350.800781 290.199219 C 351.03125 290.199219 351.21875 290.011719 351.21875 289.78125 C 351.21875 289.550781 351.03125 289.367188 350.800781 289.367188 L 349.132813 289.367188 C 345.398438 289.367188 342.359375 286.328125 342.359375 282.59375 L 342.359375 278.363281 L 343.257813 278.363281 L 343.257813 282.671875 C 343.257813 285.878906 345.867188 288.484375 349.074219 288.484375 L 350.800781 288.484375 C 351.03125 288.484375 351.21875 288.296875 351.21875 288.066406 C 351.21875 287.835938 351.03125 287.652344 350.800781 287.652344 L 349.074219 287.652344 C 346.328125 287.652344 344.09375 285.417969 344.09375 282.671875 L 344.09375 278.363281 L 344.992188 278.363281 L 344.992188 282.992188 C 344.992188 285.082031 346.6875 286.777344 348.777344 286.777344 L 350.800781 286.777344 C 351.03125 286.777344 351.21875 286.589844 351.21875 286.359375 C 351.21875 286.128906 351.03125 285.941406 350.800781 285.941406 L 348.777344 285.941406 C 347.148438 285.941406 345.828125 284.617188 345.828125 282.992188 L 345.828125 278.363281 L 346.726563 278.363281 L 346.726563 283.078125 C 346.726563 284.179688 347.621094 285.078125 348.722656 285.078125 L 350.800781 285.078125 C 351.03125 285.078125 351.21875 284.890625 351.21875 284.660156 C 351.21875 284.429688 351.03125 284.242188 350.800781 284.242188 L 348.722656 284.242188 C 348.082031 284.242188 347.558594 283.722656 347.558594 283.078125 L 347.558594 278.363281 L 350.296875 278.363281 C 350.527344 278.363281 350.714844 278.175781 350.714844 277.945313 C 350.714844 277.714844 350.527344 277.53125 350.296875 277.53125 L 339.476563 277.53125 C 339.246094 277.53125 339.058594 277.714844 339.058594 277.945313 C 339.058594 278.175781 339.246094 278.363281 339.476563 278.363281 "/>
<path style=" stroke:none;fill-rule:nonzero;fill:rgb(13.729858%,12.159729%,12.548828%);fill-opacity:1;" d="M 361.21875 272.492188 C 362.242188 272.492188 363.238281 272.683594 364.183594 273.054688 L 364.183594 274.023438 C 363.253906 273.609375 362.242188 273.390625 361.21875 273.390625 C 357.210938 273.390625 353.953125 276.648438 353.953125 280.65625 C 353.953125 284.660156 357.210938 287.917969 361.21875 287.917969 C 362.242188 287.917969 363.253906 287.699219 364.183594 287.285156 L 364.183594 288.257813 C 363.238281 288.625 362.242188 288.820313 361.21875 288.820313 C 356.714844 288.820313 353.054688 285.15625 353.054688 280.65625 C 353.054688 276.15625 356.714844 272.492188 361.21875 272.492188 M 364.183594 280.65625 C 364.183594 282.289063 362.851563 283.621094 361.21875 283.621094 C 359.582031 283.621094 358.253906 282.289063 358.253906 280.65625 C 358.253906 279.019531 359.582031 277.691406 361.21875 277.691406 C 362.851563 277.691406 364.183594 279.019531 364.183594 280.65625 M 361.21875 276.855469 C 359.121094 276.855469 357.417969 278.5625 357.417969 280.65625 C 357.417969 282.75 359.121094 284.453125 361.21875 284.453125 C 362.417969 284.453125 363.484375 283.894531 364.183594 283.023438 L 364.183594 284.292969 C 363.347656 284.976563 362.300781 285.351563 361.21875 285.351563 C 358.628906 285.351563 356.519531 283.246094 356.519531 280.65625 C 356.519531 278.066406 358.628906 275.957031 361.21875 275.957031 C 362.300781 275.957031 363.320313 276.316406 364.160156 276.996094 C 364.167969 277 364.175781 277 364.183594 277.007813 L 364.183594 278.285156 C 363.484375 277.414063 362.417969 276.855469 361.21875 276.855469 M 364.183594 275.992188 C 363.300781 275.429688 362.269531 275.125 361.21875 275.125 C 358.167969 275.125 355.6875 277.605469 355.6875 280.65625 C 355.6875 283.707031 358.167969 286.1875 361.21875 286.1875 C 362.277344 286.1875 363.300781 285.882813 364.183594 285.320313 L 364.183594 286.359375 C 363.273438 286.832031 362.25 287.085938 361.21875 287.085938 C 357.671875 287.085938 354.789063 284.199219 354.789063 280.65625 C 354.789063 277.109375 357.671875 274.226563 361.21875 274.226563 C 362.25 274.226563 363.273438 274.476563 364.183594 274.949219 Z M 361.21875 289.652344 C 362.238281 289.652344 363.230469 289.476563 364.183594 289.140625 L 364.183594 290.199219 C 364.183594 290.429688 364.367188 290.617188 364.601563 290.617188 C 364.832031 290.617188 365.015625 290.429688 365.015625 290.199219 L 365.015625 271.273438 C 365.015625 271.042969 364.832031 270.855469 364.601563 270.855469 C 364.367188 270.855469 364.183594 271.042969 364.183594 271.273438 L 364.183594 272.167969 C 363.230469 271.835938 362.238281 271.660156 361.21875 271.660156 C 356.257813 271.660156 352.21875 275.695313 352.21875 280.65625 C 352.21875 285.617188 356.257813 289.652344 361.21875 289.652344 "/>
<path style=" stroke:none;fill-rule:nonzero;fill:rgb(13.729858%,12.159729%,12.548828%);fill-opacity:1;" d="M 366.332031 290.617188 C 366.5625 290.617188 366.75 290.429688 366.75 290.199219 L 366.75 271.273438 C 366.75 271.042969 366.5625 270.855469 366.332031 270.855469 C 366.101563 270.855469 365.914063 271.042969 365.914063 271.273438 L 365.914063 290.199219 C 365.914063 290.429688 366.101563 290.617188 366.332031 290.617188 "/>
<path style=" stroke:none;fill-rule:nonzero;fill:rgb(13.729858%,12.159729%,12.548828%);fill-opacity:1;" d="M 368.066406 290.617188 C 368.296875 290.617188 368.480469 290.429688 368.480469 290.199219 L 368.480469 271.273438 C 368.480469 271.042969 368.296875 270.855469 368.066406 270.855469 C 367.835938 270.855469 367.648438 271.042969 367.648438 271.273438 L 367.648438 290.199219 C 367.648438 290.429688 367.835938 290.617188 368.066406 290.617188 "/>
<path style=" stroke:none;fill-rule:nonzero;fill:rgb(13.729858%,12.159729%,12.548828%);fill-opacity:1;" d="M 369.796875 290.617188 C 370.027344 290.617188 370.214844 290.429688 370.214844 290.199219 L 370.214844 271.273438 C 370.214844 271.042969 370.027344 270.855469 369.796875 270.855469 C 369.566406 270.855469 369.378906 271.042969 369.378906 271.273438 L 369.378906 290.199219 C 369.378906 290.429688 369.566406 290.617188 369.796875 290.617188 "/>
<path style=" stroke:none;fill-rule:nonzero;fill:rgb(13.729858%,12.159729%,12.548828%);fill-opacity:1;" d="M 452.3125 262.925781 C 453.949219 262.925781 455.277344 264.253906 455.277344 265.890625 C 455.277344 267.523438 453.949219 268.855469 452.3125 268.855469 C 450.679688 268.855469 449.347656 267.523438 449.347656 265.890625 C 449.347656 264.253906 450.679688 262.925781 452.3125 262.925781 M 449.296875 268.527344 L 449.296875 290.21875 C 449.296875 290.449219 449.484375 290.636719 449.714844 290.636719 C 449.945313 290.636719 450.132813 290.449219 450.132813 290.21875 L 450.132813 268.996094 C 450.410156 269.191406 450.710938 269.347656 451.035156 269.464844 C 451.035156 269.472656 451.03125 269.480469 451.03125 269.488281 L 451.03125 290.21875 C 451.03125 290.449219 451.21875 290.636719 451.449219 290.636719 C 451.679688 290.636719 451.863281 290.449219 451.863281 290.21875 L 451.863281 269.660156 C 452.011719 269.675781 452.160156 269.691406 452.3125 269.691406 C 452.464844 269.691406 452.613281 269.675781 452.761719 269.660156 L 452.761719 290.21875 C 452.761719 290.449219 452.949219 290.636719 453.179688 290.636719 C 453.410156 290.636719 453.597656 290.449219 453.597656 290.21875 L 453.597656 269.488281 C 453.597656 269.480469 453.59375 269.472656 453.59375 269.464844 C 453.914063 269.347656 454.21875 269.191406 454.496094 268.996094 L 454.496094 290.21875 C 454.496094 290.449219 454.683594 290.636719 454.914063 290.636719 C 455.144531 290.636719 455.328125 290.449219 455.328125 290.21875 L 455.328125 268.527344 C 455.328125 268.441406 455.296875 268.363281 455.25 268.296875 C 455.789063 267.640625 456.113281 266.800781 456.113281 265.890625 C 456.113281 263.796875 454.410156 262.089844 452.3125 262.089844 C 450.21875 262.089844 448.515625 263.796875 448.515625 265.890625 C 448.515625 266.800781 448.839844 267.640625 449.375 268.296875 C 449.332031 268.363281 449.296875 268.441406 449.296875 268.527344 "/>
<path style=" stroke:none;fill-rule:nonzero;fill:rgb(13.729858%,12.159729%,12.548828%);fill-opacity:1;" d="M 440.667969 289.671875 C 443.503906 289.671875 446.121094 288.371094 447.835938 286.109375 C 447.976563 285.925781 447.941406 285.664063 447.757813 285.523438 C 447.574219 285.386719 447.3125 285.421875 447.171875 285.605469 C 445.613281 287.65625 443.242188 288.835938 440.667969 288.835938 C 436.167969 288.835938 432.503906 285.175781 432.503906 280.671875 C 432.503906 276.171875 436.167969 272.511719 440.667969 272.511719 C 443.253906 272.511719 445.632813 273.695313 447.191406 275.765625 C 447.328125 275.949219 447.589844 275.988281 447.777344 275.847656 C 447.960938 275.710938 447.996094 275.449219 447.855469 275.265625 C 446.140625 272.984375 443.519531 271.675781 440.667969 271.675781 C 435.707031 271.675781 431.671875 275.710938 431.671875 280.671875 C 431.671875 285.632813 435.707031 289.671875 440.667969 289.671875 "/>
<path style=" stroke:none;fill-rule:nonzero;fill:rgb(13.729858%,12.159729%,12.548828%);fill-opacity:1;" d="M 445.828125 276.832031 C 445.964844 277.019531 446.222656 277.054688 446.410156 276.917969 C 446.59375 276.78125 446.632813 276.519531 446.496094 276.335938 C 445.109375 274.472656 442.984375 273.410156 440.667969 273.410156 C 436.660156 273.410156 433.402344 276.667969 433.402344 280.671875 C 433.402344 284.679688 436.660156 287.9375 440.667969 287.9375 C 442.984375 287.9375 445.109375 286.871094 446.496094 285.011719 C 446.632813 284.824219 446.59375 284.566406 446.410156 284.425781 C 446.226563 284.289063 445.964844 284.328125 445.828125 284.511719 C 444.597656 286.160156 442.71875 287.101563 440.667969 287.101563 C 437.121094 287.101563 434.238281 284.21875 434.238281 280.671875 C 434.238281 277.128906 437.121094 274.242188 440.667969 274.242188 C 442.71875 274.242188 444.597656 275.1875 445.828125 276.832031 "/>
<path style=" stroke:none;fill-rule:nonzero;fill:rgb(13.729858%,12.159729%,12.548828%);fill-opacity:1;" d="M 444.457031 277.894531 C 444.589844 278.078125 444.851563 278.121094 445.039063 277.984375 C 445.222656 277.847656 445.265625 277.585938 445.128906 277.398438 C 444.085938 275.984375 442.421875 275.140625 440.667969 275.140625 C 437.617188 275.140625 435.136719 277.621094 435.136719 280.671875 C 435.136719 283.722656 437.617188 286.203125 440.667969 286.203125 C 442.40625 286.203125 444.070313 285.371094 445.109375 283.972656 C 445.246094 283.785156 445.207031 283.523438 445.023438 283.386719 C 444.839844 283.25 444.578125 283.289063 444.4375 283.472656 C 443.542969 284.679688 442.167969 285.371094 440.667969 285.371094 C 438.078125 285.371094 435.96875 283.261719 435.96875 280.671875 C 435.96875 278.082031 438.078125 275.976563 440.667969 275.976563 C 442.15625 275.976563 443.570313 276.691406 444.457031 277.894531 "/>
<path style=" stroke:none;fill-rule:nonzero;fill:rgb(13.729858%,12.159729%,12.548828%);fill-opacity:1;" d="M 440.667969 277.707031 C 441.628906 277.707031 442.53125 278.175781 443.089844 278.960938 C 443.222656 279.148438 443.480469 279.191406 443.667969 279.058594 C 443.855469 278.925781 443.902344 278.667969 443.769531 278.476563 C 443.054688 277.472656 441.898438 276.875 440.667969 276.875 C 438.574219 276.875 436.867188 278.578125 436.867188 280.671875 C 436.867188 282.769531 438.574219 284.472656 440.667969 284.472656 C 441.882813 284.472656 443.035156 283.882813 443.746094 282.898438 C 443.882813 282.710938 443.839844 282.449219 443.652344 282.316406 C 443.46875 282.179688 443.207031 282.222656 443.070313 282.410156 C 442.515625 283.179688 441.617188 283.636719 440.667969 283.636719 C 439.03125 283.636719 437.703125 282.308594 437.703125 280.671875 C 437.703125 279.039063 439.03125 277.707031 440.667969 277.707031 "/>
<path style=" stroke:none;fill-rule:nonzero;fill:rgb(13.729858%,12.159729%,12.548828%);fill-opacity:1;" d="M 400.867188 290.515625 C 401.097656 290.515625 401.285156 290.328125 401.285156 290.101563 L 401.285156 271.289063 C 401.285156 271.0625 401.097656 270.875 400.867188 270.875 C 400.636719 270.875 400.449219 271.0625 400.449219 271.289063 L 400.449219 290.101563 C 400.449219 290.328125 400.636719 290.515625 400.867188 290.515625 "/>
<path style=" stroke:none;fill-rule:nonzero;fill:rgb(13.729858%,12.159729%,12.548828%);fill-opacity:1;" d="M 402.601563 290.515625 C 402.832031 290.515625 403.015625 290.328125 403.015625 290.101563 L 403.015625 271.289063 C 403.015625 271.0625 402.832031 270.875 402.601563 270.875 C 402.371094 270.875 402.183594 271.0625 402.183594 271.289063 L 402.183594 290.101563 C 402.183594 290.328125 402.371094 290.515625 402.601563 290.515625 "/>
<path style=" stroke:none;fill-rule:nonzero;fill:rgb(13.729858%,12.159729%,12.548828%);fill-opacity:1;" d="M 404.332031 290.515625 C 404.5625 290.515625 404.75 290.328125 404.75 290.101563 L 404.75 271.289063 C 404.75 271.0625 404.5625 270.875 404.332031 270.875 C 404.101563 270.875 403.917969 271.0625 403.917969 271.289063 L 403.917969 290.101563 C 403.917969 290.328125 404.101563 290.515625 404.332031 290.515625 "/>
<path style=" stroke:none;fill-rule:nonzero;fill:rgb(13.729858%,12.159729%,12.548828%);fill-opacity:1;" d="M 397.015625 270.875 C 396.785156 270.875 396.597656 271.0625 396.597656 271.289063 L 396.597656 290.886719 C 396.597656 294.617188 393.5625 297.65625 389.828125 297.65625 L 379.808594 297.65625 C 379.578125 297.65625 379.390625 297.84375 379.390625 298.074219 C 379.390625 298.304688 379.578125 298.492188 379.808594 298.492188 L 389.828125 298.492188 C 394.023438 298.492188 397.433594 295.078125 397.433594 290.886719 L 397.433594 271.289063 C 397.433594 271.0625 397.246094 270.875 397.015625 270.875 "/>
<path style=" stroke:none;fill-rule:nonzero;fill:rgb(13.729858%,12.159729%,12.548828%);fill-opacity:1;" d="M 395.28125 270.875 C 395.050781 270.875 394.867188 271.0625 394.867188 271.289063 L 394.867188 290.960938 C 394.867188 293.707031 392.632813 295.941406 389.886719 295.941406 L 379.808594 295.941406 C 379.578125 295.941406 379.390625 296.128906 379.390625 296.359375 C 379.390625 296.589844 379.578125 296.777344 379.808594 296.777344 L 389.886719 296.777344 C 393.089844 296.777344 395.699219 294.167969 395.699219 290.960938 L 395.699219 271.289063 C 395.699219 271.0625 395.515625 270.875 395.28125 270.875 "/>
<path style=" stroke:none;fill-rule:nonzero;fill:rgb(13.729858%,12.159729%,12.548828%);fill-opacity:1;" d="M 379.808594 294.234375 C 379.578125 294.234375 379.390625 294.421875 379.390625 294.648438 C 379.390625 294.882813 379.578125 295.066406 379.808594 295.066406 L 390.183594 295.066406 C 392.269531 295.066406 393.96875 293.371094 393.96875 291.285156 L 393.96875 271.292969 C 393.96875 271.058594 393.78125 270.875 393.550781 270.875 C 393.320313 270.875 393.132813 271.058594 393.132813 271.292969 L 393.132813 291.285156 C 393.132813 292.910156 391.808594 294.234375 390.183594 294.234375 Z M 379.808594 294.234375 "/>
<path style=" stroke:none;fill-rule:nonzero;fill:rgb(13.729858%,12.159729%,12.548828%);fill-opacity:1;" d="M 420.484375 288.835938 C 415.984375 288.835938 412.324219 285.171875 412.324219 280.671875 C 412.324219 276.171875 415.984375 272.507813 420.484375 272.507813 C 421.511719 272.507813 422.507813 272.703125 423.449219 273.070313 L 423.449219 274.042969 C 422.523438 273.628906 421.507813 273.410156 420.484375 273.410156 C 416.480469 273.410156 413.222656 276.667969 413.222656 280.671875 C 413.222656 284.679688 416.480469 287.9375 420.484375 287.9375 C 421.507813 287.9375 422.523438 287.71875 423.449219 287.304688 L 423.449219 288.273438 C 422.507813 288.644531 421.511719 288.835938 420.484375 288.835938 M 423.449219 280.671875 C 423.449219 282.308594 422.121094 283.636719 420.484375 283.636719 C 418.851563 283.636719 417.519531 282.308594 417.519531 280.671875 C 417.519531 279.039063 418.851563 277.707031 420.484375 277.707031 C 422.121094 277.707031 423.449219 279.039063 423.449219 280.671875 M 420.484375 276.875 C 418.390625 276.875 416.6875 278.578125 416.6875 280.671875 C 416.6875 282.769531 418.390625 284.472656 420.484375 284.472656 C 421.683594 284.472656 422.753906 283.914063 423.449219 283.042969 L 423.449219 284.3125 C 422.613281 284.992188 421.570313 285.371094 420.484375 285.371094 C 417.894531 285.371094 415.789063 283.261719 415.789063 280.671875 C 415.789063 278.082031 417.894531 275.976563 420.484375 275.976563 C 421.570313 275.976563 422.589844 276.332031 423.429688 277.011719 C 423.4375 277.019531 423.445313 277.019531 423.449219 277.023438 L 423.449219 278.304688 C 422.753906 277.433594 421.683594 276.875 420.484375 276.875 M 423.449219 276.007813 C 422.570313 275.449219 421.539063 275.140625 420.484375 275.140625 C 417.4375 275.140625 414.953125 277.621094 414.953125 280.671875 C 414.953125 283.722656 417.4375 286.203125 420.484375 286.203125 C 421.542969 286.203125 422.570313 285.898438 423.449219 285.335938 L 423.449219 286.378906 C 422.542969 286.851563 421.519531 287.101563 420.484375 287.101563 C 416.941406 287.101563 414.054688 284.21875 414.054688 280.671875 C 414.054688 277.128906 416.941406 274.242188 420.484375 274.242188 C 421.519531 274.242188 422.542969 274.496094 423.449219 274.96875 Z M 423.867188 290.632813 C 424.097656 290.632813 424.285156 290.449219 424.285156 290.21875 L 424.285156 271.289063 C 424.285156 271.0625 424.097656 270.875 423.867188 270.875 C 423.636719 270.875 423.449219 271.0625 423.449219 271.289063 L 423.449219 272.1875 C 422.5 271.855469 421.507813 271.675781 420.484375 271.675781 C 415.523438 271.675781 411.488281 275.710938 411.488281 280.671875 C 411.488281 285.632813 415.523438 289.667969 420.484375 289.667969 C 421.507813 289.667969 422.5 289.492188 423.449219 289.160156 L 423.449219 290.21875 C 423.449219 290.449219 423.636719 290.632813 423.867188 290.632813 "/>
<path style=" stroke:none;fill-rule:nonzero;fill:rgb(13.729858%,12.159729%,12.548828%);fill-opacity:1;" d="M 425.183594 271.289063 L 425.183594 290.21875 C 425.183594 290.449219 425.371094 290.636719 425.601563 290.636719 C 425.832031 290.636719 426.015625 290.449219 426.015625 290.21875 L 426.015625 271.289063 C 426.015625 271.0625 425.832031 270.875 425.601563 270.875 C 425.371094 270.875 425.183594 271.0625 425.183594 271.289063 "/>
<path style=" stroke:none;fill-rule:nonzero;fill:rgb(13.729858%,12.159729%,12.548828%);fill-opacity:1;" d="M 426.917969 271.289063 L 426.917969 290.21875 C 426.917969 290.449219 427.101563 290.636719 427.332031 290.636719 C 427.5625 290.636719 427.75 290.449219 427.75 290.21875 L 427.75 271.289063 C 427.75 271.0625 427.5625 270.875 427.332031 270.875 C 427.101563 270.875 426.917969 271.0625 426.917969 271.289063 "/>
<path style=" stroke:none;fill-rule:nonzero;fill:rgb(13.729858%,12.159729%,12.548828%);fill-opacity:1;" d="M 428.648438 271.289063 L 428.648438 290.21875 C 428.648438 290.449219 428.835938 290.636719 429.066406 290.636719 C 429.296875 290.636719 429.484375 290.449219 429.484375 290.21875 L 429.484375 271.289063 C 429.484375 271.0625 429.296875 270.875 429.066406 270.875 C 428.835938 270.875 428.648438 271.0625 428.648438 271.289063 "/>
<path style=" stroke:none;fill-rule:nonzero;fill:rgb(13.729858%,12.159729%,12.548828%);fill-opacity:1;" d="M 466.191406 272.511719 C 467.21875 272.511719 468.214844 272.703125 469.15625 273.070313 L 469.15625 274.042969 C 468.230469 273.628906 467.214844 273.40625 466.191406 273.40625 C 462.1875 273.40625 458.929688 276.667969 458.929688 280.671875 C 458.929688 284.679688 462.1875 287.9375 466.191406 287.9375 C 467.214844 287.9375 468.230469 287.71875 469.15625 287.304688 L 469.15625 288.273438 C 468.214844 288.644531 467.21875 288.835938 466.191406 288.835938 C 461.691406 288.835938 458.03125 285.175781 458.03125 280.671875 C 458.03125 276.171875 461.691406 272.511719 466.191406 272.511719 M 469.15625 280.671875 C 469.15625 282.308594 467.828125 283.636719 466.191406 283.636719 C 464.558594 283.636719 463.226563 282.308594 463.226563 280.671875 C 463.226563 279.039063 464.558594 277.707031 466.191406 277.707031 C 467.828125 277.707031 469.15625 279.039063 469.15625 280.671875 M 466.191406 276.875 C 464.097656 276.875 462.394531 278.578125 462.394531 280.671875 C 462.394531 282.769531 464.097656 284.472656 466.191406 284.472656 C 467.390625 284.472656 468.460938 283.910156 469.15625 283.042969 L 469.15625 284.308594 C 468.320313 284.992188 467.277344 285.371094 466.191406 285.371094 C 463.601563 285.371094 461.496094 283.261719 461.496094 280.671875 C 461.496094 278.082031 463.601563 275.976563 466.191406 275.976563 C 467.277344 275.976563 468.296875 276.335938 469.136719 277.011719 C 469.144531 277.019531 469.152344 277.019531 469.15625 277.023438 L 469.15625 278.304688 C 468.460938 277.433594 467.390625 276.875 466.191406 276.875 M 469.15625 276.007813 C 468.277344 275.449219 467.246094 275.140625 466.191406 275.140625 C 463.144531 275.140625 460.660156 277.625 460.660156 280.671875 C 460.660156 283.722656 463.144531 286.207031 466.191406 286.207031 C 467.25 286.207031 468.277344 285.898438 469.15625 285.339844 L 469.15625 286.378906 C 468.25 286.851563 467.226563 287.101563 466.191406 287.101563 C 462.648438 287.101563 459.761719 284.21875 459.761719 280.671875 C 459.761719 277.128906 462.648438 274.242188 466.191406 274.242188 C 467.226563 274.242188 468.25 274.496094 469.15625 274.96875 Z M 466.191406 289.671875 C 467.214844 289.671875 468.207031 289.492188 469.15625 289.160156 L 469.15625 290.21875 C 469.15625 290.449219 469.34375 290.636719 469.574219 290.636719 C 469.804688 290.636719 469.992188 290.449219 469.992188 290.21875 L 469.992188 271.292969 C 469.992188 271.058594 469.804688 270.875 469.574219 270.875 C 469.34375 270.875 469.15625 271.058594 469.15625 271.292969 L 469.15625 272.1875 C 468.207031 271.855469 467.214844 271.675781 466.191406 271.675781 C 461.230469 271.675781 457.195313 275.710938 457.195313 280.671875 C 457.195313 285.632813 461.230469 289.671875 466.191406 289.671875 "/>
<path style=" stroke:none;fill-rule:nonzero;fill:rgb(13.729858%,12.159729%,12.548828%);fill-opacity:1;" d="M 471.308594 290.636719 C 471.539063 290.636719 471.722656 290.449219 471.722656 290.21875 L 471.722656 271.289063 C 471.722656 271.0625 471.539063 270.875 471.308594 270.875 C 471.078125 270.875 470.890625 271.0625 470.890625 271.289063 L 470.890625 290.21875 C 470.890625 290.449219 471.078125 290.636719 471.308594 290.636719 "/>
<path style=" stroke:none;fill-rule:nonzero;fill:rgb(13.729858%,12.159729%,12.548828%);fill-opacity:1;" d="M 473.039063 290.636719 C 473.269531 290.636719 473.457031 290.449219 473.457031 290.21875 L 473.457031 271.289063 C 473.457031 271.0625 473.269531 270.875 473.039063 270.875 C 472.808594 270.875 472.625 271.0625 472.625 271.289063 L 472.625 290.21875 C 472.625 290.449219 472.808594 290.636719 473.039063 290.636719 "/>
<path style=" stroke:none;fill-rule:nonzero;fill:rgb(13.729858%,12.159729%,12.548828%);fill-opacity:1;" d="M 474.773438 290.636719 C 475.003906 290.636719 475.191406 290.449219 475.191406 290.21875 L 475.191406 271.289063 C 475.191406 271.0625 475.003906 270.875 474.773438 270.875 C 474.542969 270.875 474.355469 271.0625 474.355469 271.289063 L 474.355469 290.21875 C 474.355469 290.449219 474.542969 290.636719 474.773438 290.636719 "/>
<path style="stroke:none;fill-rule:nonzero;fill:rgb(13.729858%,12.159729%,12.548828%);fill-opacity:1;" d="M 405.648438 272.789063 L 405.648438 290.101563 C 405.648438 290.328125 405.835938 290.515625 406.066406 290.515625 C 406.296875 290.515625 406.484375 290.328125 406.484375 290.101563 L 406.484375 280.671875 C 406.484375 279.039063 407.8125 277.707031 409.449219 277.707031 C 409.667969 277.707031 409.886719 277.734375 410.101563 277.78125 C 410.324219 277.832031 410.550781 277.6875 410.597656 277.464844 C 410.652344 277.238281 410.507813 277.015625 410.285156 276.964844 C 410.011719 276.90625 409.730469 276.875 409.449219 276.875 C 408.25 276.875 407.179688 277.433594 406.484375 278.304688 L 406.484375 277.035156 C 407.5 276.210938 408.84375 275.835938 410.132813 276.023438 C 410.359375 276.054688 410.574219 275.898438 410.605469 275.671875 C 410.636719 275.445313 410.480469 275.234375 410.253906 275.199219 C 409.988281 275.160156 409.714844 275.140625 409.449219 275.140625 C 408.390625 275.140625 407.363281 275.445313 406.484375 276.007813 L 406.484375 274.972656 C 407.597656 274.390625 408.882813 274.144531 410.148438 274.28125 C 410.378906 274.304688 410.582031 274.140625 410.609375 273.910156 C 410.632813 273.679688 410.464844 273.476563 410.238281 273.449219 C 408.953125 273.3125 407.652344 273.523438 406.484375 274.042969 L 406.484375 273.070313 C 407.648438 272.617188 408.898438 272.433594 410.15625 272.539063 C 410.378906 272.558594 410.589844 272.390625 410.609375 272.160156 C 410.628906 271.929688 410.457031 271.730469 410.226563 271.707031 C 408.953125 271.601563 407.679688 271.761719 406.484375 272.179688 L 406.484375 271.289063 C 406.484375 271.0625 406.296875 270.875 406.066406 270.875 C 405.835938 270.875 405.648438 271.0625 405.648438 271.289063 Z M 405.648438 272.789063 "/>
<path style=" stroke:none;fill-rule:nonzero;fill:rgb(13.729858%,12.159729%,12.548828%);fill-opacity:1;" d="M 388.386719 272.496094 C 389.429688 272.496094 390.441406 272.695313 391.398438 273.074219 L 391.398438 274.050781 C 390.457031 273.621094 389.425781 273.394531 388.386719 273.394531 C 384.378906 273.394531 381.121094 276.652344 381.121094 280.660156 C 381.121094 284.664063 384.378906 287.925781 388.386719 287.925781 C 389.425781 287.925781 390.457031 287.699219 391.398438 287.269531 L 391.398438 288.242188 C 390.441406 288.625 389.429688 288.824219 388.386719 288.824219 C 383.882813 288.824219 380.222656 285.160156 380.222656 280.660156 C 380.222656 276.160156 383.882813 272.496094 388.386719 272.496094 M 391.398438 276.023438 C 390.507813 275.445313 389.457031 275.128906 388.386719 275.128906 C 385.335938 275.128906 382.855469 277.609375 382.855469 280.660156 C 382.855469 283.710938 385.335938 286.191406 388.386719 286.191406 C 389.464844 286.191406 390.507813 285.871094 391.398438 285.292969 L 391.398438 286.339844 C 390.476563 286.828125 389.4375 287.089844 388.386719 287.089844 C 384.839844 287.089844 381.957031 284.203125 381.957031 280.660156 C 381.957031 277.113281 384.839844 274.230469 388.386719 274.230469 C 389.4375 274.230469 390.476563 274.488281 391.398438 274.980469 Z M 391.351563 280.660156 C 391.351563 282.292969 390.019531 283.625 388.386719 283.625 C 386.75 283.625 385.421875 282.292969 385.421875 280.660156 C 385.421875 279.023438 386.75 277.695313 388.386719 277.695313 C 390.019531 277.695313 391.351563 279.023438 391.351563 280.660156 M 388.386719 276.859375 C 386.289063 276.859375 384.585938 278.566406 384.585938 280.660156 C 384.585938 282.753906 386.289063 284.457031 388.386719 284.457031 C 389.613281 284.457031 390.703125 283.871094 391.398438 282.960938 L 391.398438 284.257813 C 390.554688 284.964844 389.492188 285.355469 388.386719 285.355469 C 385.796875 285.355469 383.6875 283.25 383.6875 280.660156 C 383.6875 278.070313 385.796875 275.960938 388.386719 275.960938 C 389.46875 275.960938 390.488281 276.320313 391.332031 277 C 391.351563 277.015625 391.375 277.023438 391.398438 277.035156 L 391.398438 278.355469 C 390.703125 277.449219 389.613281 276.859375 388.386719 276.859375 M 388.386719 289.65625 C 389.421875 289.65625 390.433594 289.472656 391.398438 289.128906 L 391.398438 291.371094 C 391.398438 292.011719 390.878906 292.535156 390.234375 292.535156 L 379.808594 292.535156 C 379.578125 292.535156 379.390625 292.71875 379.390625 292.953125 C 379.390625 293.179688 379.578125 293.367188 379.808594 293.367188 L 390.234375 293.367188 C 391.335938 293.367188 392.234375 292.472656 392.234375 291.371094 L 392.234375 271.289063 C 392.234375 271.058594 392.046875 270.875 391.816406 270.875 C 391.585938 270.875 391.398438 271.058594 391.398438 271.289063 L 391.398438 272.191406 C 390.433594 271.847656 389.425781 271.664063 388.386719 271.664063 C 383.425781 271.664063 379.390625 275.699219 379.390625 280.660156 C 379.390625 285.621094 383.425781 289.65625 388.386719 289.65625 "/>
</svg>